<?xml version="1.0" standalone="no"?>
<!DOCTYPE svg PUBLIC "-//W3C//DTD SVG 20010904//EN"
 "http://www.w3.org/TR/2001/REC-SVG-20010904/DTD/svg10.dtd">
<svg version="1.0" xmlns="http://www.w3.org/2000/svg"
 width="1280.000000pt" height="800.000000pt" viewBox="0 0 1280.000000 800.000000"
 preserveAspectRatio="xMidYMid meet">

<g transform="translate(0.000000,800.000000) scale(0.100000,-0.100000)"
fill="#000000" stroke="none">
<path d="M5890 5984 c-417 -17 -729 -42 -1120 -90 -1665 -202 -2973 -716
-3450 -1356 -213 -287 -252 -600 -110 -897 253 -529 1072 -999 2265 -1300 88
-22 216 -52 285 -67 69 -14 143 -30 165 -35 129 -28 598 -103 802 -128 619
-77 929 -95 1663 -95 382 -1 661 4 780 12 1122 77 1899 213 2685 469 780 254
1359 602 1628 978 68 95 141 253 163 350 25 108 22 263 -5 370 -203 786 -1631
1456 -3621 1699 -561 69 -862 87 -1515 90 -291 2 -568 2 -615 0z m890 -194
c1191 -37 2230 -199 3075 -478 625 -207 1079 -458 1352 -745 118 -126 181
-224 229 -362 25 -71 28 -94 28 -205 0 -108 -4 -136 -27 -205 -142 -428 -679
-806 -1563 -1100 -644 -214 -1430 -365 -2269 -434 -503 -42 -603 -46 -1210
-46 -606 0 -682 3 -1205 46 -1388 113 -2636 460 -3300 917 -199 137 -327 259
-425 407 -163 244 -178 504 -45 752 357 669 1828 1229 3675 1398 610 55 1125
72 1685 55z"/>
<path d="M5778 5629 c-462 -17 -1006 -70 -1473 -144 -1673 -266 -2759 -822
-2812 -1441 -42 -498 604 -983 1732 -1303 693 -196 1528 -323 2440 -372 288
-16 1168 -16 1460 -1 1378 73 2573 328 3345 713 262 131 413 233 568 383 179
173 265 344 266 526 0 106 -15 172 -64 275 -290 604 -1621 1119 -3360 1299
-336 35 -589 54 -890 66 -284 11 -910 11 -1212 -1z m-113 -337 c774 -129 1038
-156 1510 -156 313 0 337 2 479 27 174 31 199 33 220 11 31 -31 20 -65 -42
-124 -98 -94 -322 -193 -502 -221 -95 -15 -353 -6 -475 16 -153 27 -396 93
-631 171 -124 41 -232 74 -239 74 -7 0 -16 -11 -19 -25 -4 -15 -52 -63 -124
-124 -118 -99 -199 -183 -304 -316 -68 -87 -172 -245 -165 -252 7 -6 201 14
322 33 50 8 94 14 98 14 4 0 5 22 1 49 -12 92 37 200 107 236 60 32 150 10
182 -44 45 -76 -11 -204 -118 -271 -64 -41 -68 -63 -15 -91 19 -10 38 -20 42
-21 4 -2 5 -13 2 -25 -12 -45 -97 -18 -144 45 l-21 28 -107 -17 c-59 -9 -179
-25 -267 -34 -88 -9 -160 -17 -161 -18 -1 -1 -28 -45 -59 -97 -32 -52 -124
-194 -203 -315 -371 -566 -586 -782 -839 -841 -93 -22 -279 -22 -362 0 -96 25
-179 73 -251 146 -208 210 -199 546 22 757 91 87 256 169 325 161 22 -2 28 -8
28 -28 0 -19 -10 -30 -45 -49 -69 -38 -155 -133 -197 -219 -66 -133 -55 -262
33 -369 52 -64 111 -88 214 -87 110 1 176 17 278 67 213 106 461 349 745 728
48 64 87 119 87 122 0 11 -53 8 -139 -8 -120 -23 -206 -52 -240 -81 -61 -51
-96 -3 -42 59 54 61 195 110 402 141 56 9 103 17 104 18 1 2 24 35 51 73 117
168 284 357 421 476 102 90 239 189 260 189 7 0 13 5 13 10 0 6 -2 10 -4 10
-2 0 -105 21 -228 46 -204 42 -239 46 -408 51 -329 10 -577 -48 -765 -177
-180 -124 -258 -355 -154 -459 65 -65 162 -64 298 5 97 49 189 125 227 189 29
51 53 64 72 38 16 -22 9 -60 -28 -140 -110 -239 -321 -393 -540 -393 -202 0
-355 201 -323 426 27 186 165 354 381 463 123 62 328 117 522 141 133 16 578
5 715 -18z m3669 -739 c-21 -38 -40 -72 -44 -78 -4 -5 -19 -30 -32 -55 -36
-64 -216 -383 -424 -750 -98 -173 -191 -339 -206 -369 -49 -94 -33 -138 46
-129 83 10 257 138 424 312 46 47 86 86 91 86 4 0 16 -6 27 -14 19 -15 19 -15
-4 -59 -36 -69 -211 -266 -303 -342 -116 -94 -229 -147 -330 -153 -45 -3 -91
1 -112 7 -42 14 -86 62 -94 103 -3 16 -8 27 -12 26 -3 -2 -33 -17 -66 -34
-153 -80 -372 -116 -482 -80 -71 24 -126 75 -165 154 -30 61 -33 74 -33 163
l0 97 -50 -21 c-42 -17 -73 -21 -190 -21 -126 -1 -144 1 -181 21 -56 30 -110
94 -130 156 l-16 49 -18 -28 c-9 -16 -86 -156 -170 -311 l-153 -283 -139 0
c-132 0 -140 1 -135 19 2 10 72 132 154 272 229 388 233 396 264 480 35 95 36
116 7 146 -28 30 -51 29 -117 -4 -92 -47 -249 -218 -428 -466 -119 -165 -180
-235 -269 -306 -134 -108 -241 -151 -377 -151 -169 0 -320 101 -357 241 l-11
40 -50 -44 c-27 -24 -78 -59 -113 -77 -56 -30 -66 -33 -81 -20 -26 22 -50 73
-36 78 24 8 158 120 189 157 17 21 72 118 123 214 50 97 111 203 134 236 125
173 276 268 452 282 67 5 73 4 97 -20 14 -14 26 -37 26 -49 0 -21 -10 -27 -88
-50 -145 -44 -274 -141 -352 -264 -43 -68 -90 -187 -101 -256 -26 -161 64
-287 205 -288 141 0 279 96 398 277 55 83 75 141 89 258 14 110 2 181 -42 250
-34 53 -33 81 3 115 42 39 94 23 132 -43 40 -69 58 -137 65 -237 l6 -94 70 84
c184 223 315 333 418 350 143 23 237 -31 260 -148 l11 -61 76 72 c88 84 149
117 228 124 103 9 175 -24 212 -98 61 -118 -37 -274 -171 -272 -65 1 -127 37
-157 91 -23 41 -24 41 -50 28 -39 -20 -71 -84 -78 -152 -4 -50 -1 -65 18 -99
45 -78 150 -104 282 -70 94 25 142 60 325 242 192 192 265 250 367 290 60 24
83 27 184 27 108 1 118 -1 161 -26 55 -33 91 -72 126 -141 l25 -50 31 49 c32
52 125 208 290 489 55 94 104 176 110 183 7 8 48 12 144 12 l134 0 -37 -67z"/>
<path d="M5943 4630 c-12 -5 -29 -20 -37 -33 -29 -44 -33 -167 -6 -167 18 0
81 64 101 101 40 80 13 127 -58 99z"/>
<path d="M8287 3936 c-126 -45 -288 -199 -356 -337 -43 -89 -71 -181 -71 -237
0 -56 21 -119 47 -144 21 -20 35 -23 96 -23 60 0 81 5 127 29 75 39 138 93
213 184 59 72 167 224 167 237 0 3 -7 5 -15 5 -18 0 -18 2 -1 45 43 102 24
200 -45 235 -44 23 -107 25 -162 6z"/>
</g>
</svg>
